# xmcd CD database file
#
# Track frame offsets:
#	150
#	34536
#	68935
#	109255
#	156255
#	193052
#
# Disc length: 2866 seconds
#
# Revision: 0
# Processed by: cddbd v1.4PL0 Copyright (c) Steve Scherf et al.
# Submitted via: CDex 1.51
#
DISCID=4e0b3006
DTITLE=Tete Montoliu Trio - Catalonian Fire
DYEAR=1974
DGENRE=Jazz
TTITLE0=Sweet Georgia Fame
TTITLE1=A Nightingale Sang At Berkeley Square
TTITLE2=Blues For Perla
TTITLE3=Falling In Love With You
TTITLE4=Old Folks
TTITLE5=Au Privae
EXTD=YEAR: 1974
EXTT0=
EXTT1=
EXTT2=
EXTT3=
EXTT4=
EXTT5=
PLAYORDER=
